<?xml version="1.0" standalone="no"?>
<!DOCTYPE svg PUBLIC "-//W3C//DTD SVG 20010904//EN"
 "http://www.w3.org/TR/2001/REC-SVG-20010904/DTD/svg10.dtd">
<svg version="1.0" xmlns="http://www.w3.org/2000/svg"
 width="860.000000pt" height="529.000000pt" viewBox="0 0 860.000000 529.000000"
 preserveAspectRatio="xMidYMid meet">

<g transform="translate(0.000000,529.000000) scale(0.100000,-0.100000)"
fill="#FFFFFF" stroke="none">
<path d="M1956 4846 c-15 -14 -28 -45 -35 -77 -17 -86 -411 -2217 -411 -2226
-1 -17 -21 30 -134 312 -122 301 -147 345 -199 345 -59 0 -74 -23 -217 -325
l-136 -290 -98 -3 c-96 -3 -98 -2 -132 27 -18 17 -52 36 -74 42 -78 23 -164
-24 -196 -107 -53 -139 101 -273 235 -205 20 11 43 27 50 35 11 13 39 16 161
16 142 0 148 1 171 24 13 13 69 119 123 236 54 116 102 207 106 203 4 -4 69
-163 144 -353 106 -267 144 -351 167 -372 39 -37 79 -37 119 0 30 27 30 27
197 935 93 499 171 899 175 890 3 -10 18 -220 32 -468 87 -1493 187 -3068 196
-3085 25 -47 78 -62 129 -35 35 18 33 12 135 360 46 160 169 578 271 930 103
352 191 644 195 648 4 5 18 -20 30 -54 41 -108 95 -148 158 -115 34 18 25 -2
192 386 72 168 135 308 139 313 4 4 63 -88 132 -204 87 -147 132 -215 151
-225 23 -12 345 -14 2141 -14 1911 0 2116 -2 2128 -16 21 -26 86 -54 123 -54
97 0 168 73 168 172 0 144 -179 219 -281 118 l-30 -30 -2077 2 -2077 3 -153
260 c-85 143 -165 270 -179 283 -31 27 -81 29 -112 4 -14 -11 -68 -122 -144
-297 -66 -154 -130 -300 -141 -325 l-19 -45 -35 85 c-45 111 -54 130 -77 142
-35 18 -88 12 -112 -14 -27 -27 -17 5 -290 -933 -114 -390 -211 -717 -216
-725 -6 -11 -8 -7 -9 15 0 17 -18 323 -40 680 -22 358 -71 1174 -110 1815 -38
641 -72 1193 -76 1227 -4 48 -11 67 -31 87 -35 35 -94 36 -127 2z"/>
</g>
</svg>
